<svg width="72" height="72" viewBox="0 0 72 72" fill="none" xmlns="http://www.w3.org/2000/svg">
<circle cx="36" cy="36" r="36" fill="#0B409C"/>
<path d="M27.9445 30.232C28.0298 27.9493 28.7765 26.1893 30.1845 24.952C31.5925 23.7147 33.5018 23.096 35.9125 23.096C37.5125 23.096 38.8778 23.3733 40.0085 23.928C41.1605 24.4827 42.0245 25.24 42.6005 26.2C43.1978 27.16 43.4965 28.2373 43.4965 29.432C43.4965 30.84 43.1445 31.992 42.4405 32.888C41.7365 33.7627 40.9152 34.36 39.9765 34.68V34.808C41.1925 35.2133 42.1525 35.8853 42.8565 36.824C43.5605 37.7627 43.9125 38.968 43.9125 40.44C43.9125 41.7627 43.6032 42.936 42.9845 43.96C42.3872 44.9627 41.5018 45.752 40.3285 46.328C39.1765 46.904 37.8005 47.192 36.2005 47.192C33.6405 47.192 31.5925 46.5627 30.0565 45.304C28.5418 44.0453 27.7418 42.1467 27.6565 39.608H32.9685C32.9898 40.5467 33.2565 41.2933 33.7685 41.848C34.2805 42.3813 35.0272 42.648 36.0085 42.648C36.8405 42.648 37.4805 42.4133 37.9285 41.944C38.3978 41.4533 38.6325 40.8133 38.6325 40.024C38.6325 39 38.3018 38.264 37.6405 37.816C37.0005 37.3467 35.9658 37.112 34.5365 37.112H33.5125V32.664H34.5365C35.6245 32.664 36.4992 32.4827 37.1605 32.12C37.8432 31.736 38.1845 31.064 38.1845 30.104C38.1845 29.336 37.9712 28.7387 37.5445 28.312C37.1178 27.8853 36.5312 27.672 35.7845 27.672C34.9738 27.672 34.3658 27.9173 33.9605 28.408C33.5765 28.8987 33.3525 29.5067 33.2885 30.232H27.9445Z" fill="white"/>
</svg>
