<svg width="72" height="72" viewBox="0 0 72 72" fill="none" xmlns="http://www.w3.org/2000/svg">
<circle cx="36" cy="36" r="36" fill="#0B409C"/>
<path d="M28.6074 42.616C29.3327 42.04 29.6634 41.7733 29.5994 41.816C31.69 40.088 33.3327 38.6693 34.5274 37.56C35.7434 36.4507 36.7674 35.288 37.5994 34.072C38.4314 32.856 38.8474 31.672 38.8474 30.52C38.8474 29.6453 38.6447 28.9627 38.2394 28.472C37.834 27.9813 37.226 27.736 36.4154 27.736C35.6047 27.736 34.9647 28.0453 34.4954 28.664C34.0474 29.2613 33.8234 30.1147 33.8234 31.224H28.5434C28.586 29.4107 28.97 27.896 29.6954 26.68C30.442 25.464 31.4127 24.568 32.6074 23.992C33.8234 23.416 35.1674 23.128 36.6394 23.128C39.178 23.128 41.0874 23.7787 42.3674 25.08C43.6687 26.3813 44.3194 28.0773 44.3194 30.168C44.3194 32.4507 43.5407 34.5733 41.9834 36.536C40.426 38.4773 38.442 40.376 36.0314 42.232H44.6714V46.68H28.6074V42.616Z" fill="white"/>
</svg>
